# Blender v3.0.0 OBJ File: ''
# www.blender.org
mtllib stairs.mtl
o Cube
v 0.500000 -0.500000 -0.500000
v 0.500000 -0.500000 0.500000
v -0.500000 -0.500000 -0.500000
v -0.500000 -0.500000 0.500000
v 0.500000 0.000000 -0.500000
v -0.500000 0.000000 0.500000
v 0.500000 0.000000 0.500000
v -0.500000 0.000000 -0.500000
v 0.000000 -0.500000 -0.500000
v 0.000000 -0.500000 0.500000
v 0.000000 0.000000 -0.500000
v 0.000000 0.000000 0.500000
v -0.500000 0.500000 0.500000
v -0.500000 0.500000 -0.500000
v 0.000000 0.500000 0.500000
v 0.000000 0.500000 -0.500000
vt 0.500000 0.375000
vt 0.500000 0.375000
vt 0.500000 0.750000
vt 0.500000 0.500000
vt 0.250000 0.500000
vt 0.375000 0.500000
vt 0.375000 0.750000
vt 0.250000 0.750000
vt 0.375000 0.375000
vt 0.375000 0.000000
vt 0.500000 0.000000
vt 0.500000 0.250000
vt 0.375000 0.250000
vt 0.375000 0.875000
vt 0.500000 0.875000
vt 0.500000 1.000000
vt 0.375000 1.000000
vt 0.125000 0.500000
vt 0.125000 0.750000
vt 0.500000 0.875000
vt 0.500000 1.000000
vt 0.500000 0.250000
vt 0.500000 0.000000
vt 0.500000 0.375000
vt 0.500000 0.375000
vn 0.0000 1.0000 0.0000
vn 0.0000 -1.0000 0.0000
vn 0.0000 0.0000 -1.0000
vn 1.0000 0.0000 0.0000
vn -1.0000 0.0000 0.0000
vn 0.0000 0.0000 1.0000
usemtl Material
s off
f 11/1/1 12/2/1 7/3/1 5/4/1
f 9/5/2 1/6/2 2/7/2 10/8/2
f 9/9/3 11/1/3 5/4/3 1/6/3
f 1/6/4 5/4/4 7/3/4 2/7/4
f 4/10/5 6/11/5 8/12/5 3/13/5
f 10/14/6 12/15/6 6/16/6 4/17/6
f 2/7/6 7/3/6 12/15/6 10/14/6
f 3/13/3 8/12/3 11/1/3 9/9/3
f 3/18/2 9/5/2 10/8/2 4/19/2
f 6/16/6 12/15/6 15/20/6 13/21/6
f 14/22/1 13/23/1 15/24/1 16/25/1
f 11/1/3 8/12/3 14/22/3 16/25/3
f 8/12/5 6/11/5 13/23/5 14/22/5
f 12/2/4 11/1/4 16/25/4 15/24/4
